HIERARCHY
ROOT Hips
{
  OFFSET -331.093 83.8371 -317.828
  CHANNELS 6 Xposition Yposition Zposition Zrotation Xrotation Yrotation
  JOINT LeftUpLeg
  {
    OFFSET 8.64259 1.95398 -2.38835
    CHANNELS 3 Zrotation Xrotation Yrotation
    JOINT LeftLeg
    {
      OFFSET 43.7702 0 0
      CHANNELS 3 Zrotation Xrotation Yrotation
      JOINT LeftFoot
      {
        OFFSET 40.6238 0 0
        CHANNELS 3 Zrotation Xrotation Yrotation
        JOINT LeftToeBase
        {
          OFFSET 12.7242 0 0
          CHANNELS 3 Zrotation Xrotation Yrotation
          End Site
          {
            OFFSET 0 0 0
          }
        }
      }
    }
  }
  JOINT RightUpLeg
  {
    OFFSET -8.2249 1.95398 -2.59336
    CHANNELS 3 Zrotation Xrotation Yrotation
    JOINT RightLeg
    {
      OFFSET 43.5653 0 0
      CHANNELS 3 Zrotation Xrotation Yrotation
      JOINT RightFoot
      {
        OFFSET 40.6238 0 0
        CHANNELS 3 Zrotation Xrotation Yrotation
        JOINT RightToeBase
        {
          OFFSET 12.7242 0 0
          CHANNELS 3 Zrotation Xrotation Yrotation
          End Site
          {
            OFFSET 0 0 0
          }
        }
      }
    }
  }
  JOINT Spine
  {
    OFFSET 0.165834 0.87714 6.61349
    CHANNELS 3 Zrotation Xrotation Yrotation
    JOINT Spine1
    {
      OFFSET 7.38963 1.71661e-005 0
      CHANNELS 3 Zrotation Xrotation Yrotation
      JOINT Spine2
      {
        OFFSET 11.9445 1.14441e-005 0
        CHANNELS 3 Zrotation Xrotation Yrotation
        JOINT Spine3
        {
          OFFSET 14.7254 4.19617e-005 0
          CHANNELS 3 Zrotation Xrotation Yrotation
          JOINT Spine4
          {
            OFFSET 10.9679 0 0
            CHANNELS 3 Zrotation Xrotation Yrotation
            JOINT RightShoulder
            {
              OFFSET 2.46616 -1.6653 3.69651
              CHANNELS 3 Zrotation Xrotation Yrotation
              JOINT RightArm
              {
                OFFSET 13.0012 0 0
                CHANNELS 3 Zrotation Xrotation Yrotation
                JOINT RightForeArm
                {
                  OFFSET 28.7848 1.62311e-005 0
                  CHANNELS 3 Zrotation Xrotation Yrotation
                  JOINT RightHand
                  {
                    OFFSET 26.5688 1.62095e-005 0
                    CHANNELS 3 Zrotation Xrotation Yrotation
                    End Site
                    {
                      OFFSET 0 0 0
                    }
                  }
                }
              }
            }
            JOINT LeftShoulder
            {
              OFFSET 2.38034 -1.29275 -3.7523
              CHANNELS 3 Zrotation Xrotation Yrotation
              JOINT LeftArm
              {
                OFFSET 16.3182 6.07031e-005 0
                CHANNELS 3 Zrotation Xrotation Yrotation
                JOINT LeftForeArm
                {
                  OFFSET 27.0901 0 0
                  CHANNELS 3 Zrotation Xrotation Yrotation
                  JOINT LeftHand
                  {
                    OFFSET 24.5451 1.51738e-005 0
                    CHANNELS 3 Zrotation Xrotation Yrotation
                    End Site
                    {
                      OFFSET 0 0 0
                    }
                  }
                }
              }
            }
            JOINT Neck
            {
              OFFSET 5.0226 -0.0266342 0
              CHANNELS 3 Zrotation Xrotation Yrotation
              JOINT Head
              {
                OFFSET 6.69364 2.86102e-005 0
                CHANNELS 3 Zrotation Xrotation Yrotation
                End Site
                {
                  OFFSET 0 0 0
                }
              }
            }
          }
        }
      }
    }
  }
}
MOTION
Frames:	9
Frame Time:	0.0416667
22.6242 96.0027 -330.575 92.5263 -41.9513 87.2939 -166.03 11.4881 90.5783 -32.7096 63.2516 -16.657 41.4679 -4.45977 45.199 27.2897 9.54199 38.7173 171.662 13.9154 95.1884 -32.4457 12.1822 1.88073 78.9104 -6.56336 -3.08311 21.7172 0.758841 11.3695 -0.851554 7.6368 -89.9792 11.603 -1.6842 0.215838 -0.0669155 -1.67308 0.289778 -22.6107 -1.67118 -0.300449 -2.59804 -1.67117 -0.300457 89.2817 -45.1465 -102.758 28.171 -16.0076 7.90331 -5.07044 -14.9852 -55.5572 -13.9646 -3.0485 21.5925 -82.4624 -39.9275 89.4705 -28.177 12.4773 1.73746 13.4773 17.9574 -42.7895 10.7109 -1.0878 -13.0504 -2.03428 -16.0824 -13.6204 -0.384882 -14.2379 3.58094 
23.9923 96.8591 -330.376 92.7651 -46.9479 87.1907 -170.812 12.7314 91.018 -36.6701 41.4759 -5.29521 45.8564 -0.492009 33.236 34.5129 19.0785 36.5803 176.137 13.0799 95.6491 -33.0326 1.25231 -3.99724 75.0982 -4.45935 -2.59506 27.5182 -0.201166 -2.46962 -0.232034 7.4557 -90.1728 11.962 -0.542745 -0.28608 0.291143 -0.554836 -0.261917 -22.2446 -0.431673 -0.435978 -2.23196 -0.431686 -0.435981 93.1354 -39.0995 -97.8193 36.0585 -10.7113 9.14942 -11.6415 -10.1388 -49.6484 -8.14171 -0.650415 4.92656 -92.6279 -45.2675 73.9804 -28.0871 5.34621 10.6349 14.3504 15.4601 -46.8113 6.70143 0.52398 2.7574 -6.42048 -16.4097 -5.27393 1.79118 -16.0095 -4.07903 
27.0266 97.3745 -331.094 91.2482 -54.7528 86.3654 -176.384 12.7665 91.2847 -30.1702 29.0426 -0.143534 52.2683 5.1784 26.125 38.7076 21.3744 30.519 177.37 11.9611 94.3486 -31.462 -6.45415 -5.7565 74.8392 -5.57206 -3.04848 27.9215 -0.456441 -4.28527 -0.134786 7.41847 -90.2119 12.0362 -0.367932 -0.382524 0.365233 -0.384415 -0.365956 -22.1697 -0.235951 -0.475412 -2.15704 -0.235961 -0.475418 92.8811 -38.4489 -98.4091 36.3582 -11.3303 7.30649 -13.1706 -8.7746 -53.1505 -6.05528 -0.400493 1.49249 -93.4935 -46.2237 72.9564 -29.5202 6.27159 11.3128 11.6452 16.7381 -41.4469 3.76332 0.167419 0.507857 -4.91043 -14.048 -2.99347 2.14782 -13.7553 -3.056 
29.8546 97.9321 -331.72 88.8528 -62.3402 85.2209 179.695 13.0226 92.3659 -25.2944 27.0408 3.46627 60.7097 6.71092 11.703 45.3835 24.3376 21.9037 177.98 11.7087 93.5778 -29.6411 -10.8399 -6.43905 73.3868 -5.60984 -3.03851 28.3432 -0.239573 -2.16899 -0.0966962 7.40862 -90.2462 12.0557 -0.308417 -0.457136 0.384695 -0.328225 -0.443125 -22.1499 -0.156773 -0.52869 -2.13725 -0.15676 -0.52869 92.5694 -38.7332 -98.8922 35.601 -13.4184 4.55723 -12.7053 -8.20661 -56.4997 -7.65338 -0.463613 1.07965 -93.6256 -46.4151 72.8118 -30.7709 5.89151 10.8022 9.35172 17.8174 -36.3804 3.16849 0.143432 0.451151 -3.27508 -11.2148 -1.8248 2.69082 -10.9667 -1.7565 
32.5988 98.0021 -332.276 88.0995 -69.246 86.3411 -179.723 12.4197 94.2667 -22.5638 32.7003 3.80674 60.5414 4.1453 7.11601 47.5638 22.6358 15.1912 179.539 11.137 93.99 -29.2287 -15.2363 -7.82404 72.1845 -5.47981 -2.99095 30.2393 -0.327726 -2.30692 -0.071236 7.48013 -90.3781 11.9121 -0.319737 -0.719698 0.240963 -0.351102 -0.70494 -22.2926 -0.0886512 -0.782519 -2.27999 -0.088661 -0.782524 92.7088 -38.1034 -98.7993 37.013 -13.041 4.09507 -13.9273 -7.02448 -58.8354 -7.98193 -0.437921 0.340563 -94.1286 -46.7563 72.1462 -31.2248 6.19574 10.1688 11.3681 23.1488 -35.4883 2.90312 0.164565 1.16272 -3.02654 -8.3131 -0.567889 3.80925 -8.23405 -1.60338 
35.7635 98.0608 -333.239 87.3004 -74.9638 86.307 -178.13 12.1048 93.6592 -23.0491 23.0582 2.5803 63.4341 4.42392 3.84377 40.956 9.87127 1.69528 -179.215 11.1935 92.9906 -29.4769 -19.5598 -9.31917 71.4255 -5.58311 -3.00213 31.6767 -0.440552 -2.72691 -0.178894 7.52526 -90.3674 11.8214 -0.528491 -0.676287 0.150371 -0.557741 -0.652381 -22.3837 -0.300809 -0.803843 -2.37109 -0.300812 -0.80385 92.2846 -39.128 -99.2946 36.321 -12.0208 4.29617 -15.2303 -7.79144 -59.4624 -8.34347 -0.467178 0.430912 -94.1103 -46.8475 72.2015 -30.9254 6.61436 9.5317 10.5512 22.6626 -35.2221 5.27811 0.503513 4.75244 -2.0693 -5.78636 -0.0163603 3.88399 -5.7534 -0.830483 
38.4343 98.1398 -334.561 79.6731 -80.4089 79.4508 -177.467 13.9551 92.5886 -25.2816 17.101 1.83728 64.6107 4.02349 3.27393 37.9021 6.37877 -1.36848 -176.642 13.1947 92.347 -29.8723 -21.2733 -10.4338 70.0044 -5.60491 -2.87892 32.7016 -0.681467 -4.11318 -0.203698 7.51091 -90.3251 11.8502 -0.55799 -0.58872 0.179292 -0.583356 -0.563597 -22.3552 -0.355269 -0.729189 -2.34259 -0.355266 -0.729198 91.5715 -40.2689 -100.246 35.2244 -9.79502 5.24946 -16.7843 -7.43797 -60.747 -5.82913 -0.381191 1.40159 -93.6884 -46.4595 72.7286 -29.9317 7.83629 7.45906 9.26817 19.8816 -34.924 8.80887 0.542659 2.03836 -1.13208 -3.58753 0.613288 4.67682 -3.66004 -0.766313 
40.4378 98.0051 -335.465 69.2078 -84.3183 69.67 -176.481 13.7839 92.3221 -24.8569 19.4088 0.570603 63.9428 6.3544 9.01196 40.0841 8.30213 -0.664897 -176.224 15.7736 92.6557 -32.095 -15.8937 -9.59353 70.2822 -5.61733 -2.87383 30.9713 -1.15006 -8.02679 -0.220775 7.5306 -90.2556 11.8113 -0.559151 -0.449974 0.140404 -0.578422 -0.424936 -22.3947 -0.398075 -0.597226 -2.38202 -0.398075 -0.597225 91.0808 -40.9008 -100.922 34.5768 -9.57357 5.43921 -18.7746 -10.2258 -58.5142 -8.14771 -0.658669 3.60396 -93.6722 -45.9168 72.5929 -27.0413 8.43534 5.9719 9.24262 17.3425 -37.0994 9.45131 0.566225 1.9858 -0.462366 -2.05113 1.25919 5.25471 -2.27815 -1.39022 
42.2312 98.1449 -335.987 55.6741 -86.9965 55.854 -176.476 11.9391 90.8311 -22.6226 26.4033 -0.276925 58.4409 7.86381 20.4059 42.6124 10.3001 -0.537199 -179.976 16.9928 92.5003 -34.6235 -7.12099 -6.67398 71.7261 -5.55823 -2.95719 33.7156 -1.01445 -5.72006 -0.253629 7.52583 -90.0825 11.822 -0.54315 -0.106714 0.151175 -0.547321 -0.0827012 -22.3847 -0.485973 -0.265016 -2.37206 -0.485964 -0.26502 90.9342 -41.3651 -101.049 34.1835 -10.5811 4.92946 -13.6684 -9.37547 -52.512 -10.5319 -0.800587 3.51005 -93.5742 -45.9274 72.7467 -22.9616 8.74808 4.27737 8.93739 15.1544 -38.7908 12.8917 0.927099 3.2135 -0.645598 -0.840095 1.5792 5.81668 -1.13705 -1.44896 
